<svg width="267" height="40" viewBox="0 0 267 40" fill="none" xmlns="http://www.w3.org/2000/svg">
<path d="M3.98 26H1.7V12H13.46V26H11.18V14.1H3.98V26ZM17.1819 24.92C16.1685 24.0267 15.6619 22.7867 15.6619 21.2C15.6619 19.6133 16.1685 18.3733 17.1819 17.48C18.2085 16.5867 19.4352 16.14 20.8619 16.14C22.3019 16.14 23.5285 16.5867 24.5419 17.48C25.5552 18.3733 26.0619 19.6133 26.0619 21.2C26.0619 22.7867 25.5552 24.0267 24.5419 24.92C23.5285 25.8133 22.3019 26.26 20.8619 26.26C19.4352 26.26 18.2085 25.8133 17.1819 24.92ZM23.0419 23.46C23.6019 22.8867 23.8819 22.1333 23.8819 21.2C23.8819 20.2667 23.6019 19.52 23.0419 18.96C22.4819 18.3867 21.7552 18.1 20.8619 18.1C19.9552 18.1 19.2219 18.3867 18.6619 18.96C18.1019 19.52 17.8219 20.2667 17.8219 21.2C17.8219 22.1333 18.1019 22.8867 18.6619 23.46C19.2219 24.02 19.9552 24.3 20.8619 24.3C21.7552 24.3 22.4819 24.02 23.0419 23.46ZM27.5369 21.28C27.5369 19.6133 28.0635 18.34 29.1169 17.46C30.1702 16.58 31.4102 16.14 32.8369 16.14C33.9835 16.14 34.9702 16.3867 35.7969 16.88V18.84C35.0502 18.3067 34.1635 18.04 33.1369 18.04C32.1902 18.04 31.3835 18.3067 30.7169 18.84C30.0502 19.36 29.7169 20.1467 29.7169 21.2C29.7169 22.2267 30.0435 23.0133 30.6969 23.56C31.3635 24.0933 32.1635 24.36 33.0969 24.36C34.1102 24.36 35.0435 24.1133 35.8969 23.62V25.6C34.9769 26.04 33.9169 26.26 32.7169 26.26C31.3169 26.26 30.1035 25.8333 29.0769 24.98C28.0502 24.1133 27.5369 22.88 27.5369 21.28ZM40.0992 26H38.0392V16.4H40.1992L43.4592 21.46L46.7392 16.4H48.8992V26H46.8392V19.5L44.0992 23.7H42.8192L40.0992 19.5V26ZM52.4944 24.92C51.481 24.0267 50.9744 22.7867 50.9744 21.2C50.9744 19.6133 51.481 18.3733 52.4944 17.48C53.521 16.5867 54.7477 16.14 56.1744 16.14C57.6144 16.14 58.841 16.5867 59.8544 17.48C60.8677 18.3733 61.3744 19.6133 61.3744 21.2C61.3744 22.7867 60.8677 24.0267 59.8544 24.92C58.841 25.8133 57.6144 26.26 56.1744 26.26C54.7477 26.26 53.521 25.8133 52.4944 24.92ZM58.3544 23.46C58.9144 22.8867 59.1944 22.1333 59.1944 21.2C59.1944 20.2667 58.9144 19.52 58.3544 18.96C57.7944 18.3867 57.0677 18.1 56.1744 18.1C55.2677 18.1 54.5344 18.3867 53.9744 18.96C53.4144 19.52 53.1344 20.2667 53.1344 21.2C53.1344 22.1333 53.4144 22.8867 53.9744 23.46C54.5344 24.02 55.2677 24.3 56.1744 24.3C57.0677 24.3 57.7944 24.02 58.3544 23.46ZM67.6555 26H65.5155V18.28H62.1955V16.4H70.9555V18.28H67.6555V26ZM74.5291 17.9C75.5024 16.7267 76.7357 16.14 78.2291 16.14C79.6424 16.14 80.7891 16.6333 81.6691 17.62C82.5491 18.5933 82.9891 19.7867 82.9891 21.2C82.9891 22.6133 82.5491 23.8133 81.6691 24.8C80.7891 25.7733 79.6424 26.26 78.2291 26.26C76.7891 26.26 75.6357 25.76 74.7691 24.76V30.4H72.6291V16.4H74.5291V17.9ZM79.9691 23.5C80.5291 22.9 80.8091 22.1333 80.8091 21.2C80.8091 20.2667 80.5291 19.5067 79.9691 18.92C79.4091 18.32 78.6957 18.02 77.8291 18.02C77.1224 18.02 76.4957 18.2133 75.9491 18.6C75.4157 18.9867 75.0224 19.46 74.7691 20.02V22.36C75.0224 22.9333 75.4157 23.4133 75.9491 23.8C76.4957 24.1867 77.1224 24.38 77.8291 24.38C78.6957 24.38 79.4091 24.0867 79.9691 23.5ZM84.4705 21.2C84.4705 20.3733 84.6171 19.6267 84.9105 18.96C85.2038 18.28 85.5905 17.7467 86.0705 17.36C86.5505 16.96 87.0705 16.66 87.6305 16.46C88.1905 16.2467 88.7571 16.14 89.3305 16.14C90.0638 16.14 90.7238 16.2533 91.3105 16.48C91.9105 16.7067 92.3905 17.0133 92.7505 17.4C93.1105 17.7867 93.4038 18.2333 93.6305 18.74C93.8571 19.2467 93.9771 19.78 93.9905 20.34C94.0038 20.8867 93.9571 21.44 93.8505 22H86.6305C86.7371 22.8133 87.1371 23.4267 87.8305 23.84C88.5238 24.24 89.3505 24.44 90.3105 24.44C91.4038 24.44 92.4171 24.2133 93.3505 23.76V25.6C92.4305 26.04 91.2838 26.26 89.9105 26.26C88.3505 26.26 87.0505 25.82 86.0105 24.94C84.9838 24.06 84.4705 22.8133 84.4705 21.2ZM91.9305 20.4C92.0105 19.8533 91.8438 19.3067 91.4305 18.76C91.0305 18.2 90.3638 17.92 89.4305 17.92C88.6705 17.92 88.0171 18.14 87.4705 18.58C86.9371 19.02 86.6505 19.6267 86.6105 20.4H91.9305ZM100.292 26H98.1522V18.28H94.8322V16.4H103.592V18.28H100.292V26ZM110.026 26H105.266V16.4H107.406V19.6H110.026C111.199 19.6 112.126 19.9 112.806 20.5C113.486 21.1 113.826 21.8667 113.826 22.8C113.826 23.7333 113.486 24.5 112.806 25.1C112.126 25.7 111.199 26 110.026 26ZM107.406 21.28V24.3H109.606C110.246 24.3 110.746 24.1733 111.106 23.92C111.466 23.6533 111.646 23.28 111.646 22.8C111.646 22.3067 111.466 21.9333 111.106 21.68C110.746 21.4133 110.246 21.28 109.606 21.28H107.406ZM126.062 26H120.422V16.4H125.902C126.849 16.4 127.589 16.64 128.122 17.12C128.669 17.5867 128.942 18.2 128.942 18.96C128.942 20.0133 128.489 20.74 127.582 21.14C128.062 21.2867 128.455 21.5533 128.762 21.94C129.069 22.3267 129.222 22.8 129.222 23.36C129.222 24.1467 128.955 24.7867 128.422 25.28C127.902 25.76 127.115 26 126.062 26ZM122.562 21.92V24.38H125.542C126.555 24.38 127.062 23.9733 127.062 23.16C127.062 22.3333 126.569 21.92 125.582 21.92H122.562ZM122.562 18.02V20.4H125.422C126.329 20.4 126.782 20.0133 126.782 19.24C126.782 18.8133 126.649 18.5067 126.382 18.32C126.129 18.12 125.809 18.02 125.422 18.02H122.562ZM130.779 21.28C130.779 19.6133 131.306 18.34 132.359 17.46C133.412 16.58 134.652 16.14 136.079 16.14C137.226 16.14 138.212 16.3867 139.039 16.88V18.84C138.292 18.3067 137.406 18.04 136.379 18.04C135.432 18.04 134.626 18.3067 133.959 18.84C133.292 19.36 132.959 20.1467 132.959 21.2C132.959 22.2267 133.286 23.0133 133.939 23.56C134.606 24.0933 135.406 24.36 136.339 24.36C137.352 24.36 138.286 24.1133 139.139 23.62V25.6C138.219 26.04 137.159 26.26 135.959 26.26C134.559 26.26 133.346 25.8333 132.319 24.98C131.292 24.1133 130.779 22.88 130.779 21.28ZM140.525 21.2C140.525 20.3733 140.672 19.6267 140.965 18.96C141.258 18.28 141.645 17.7467 142.125 17.36C142.605 16.96 143.125 16.66 143.685 16.46C144.245 16.2467 144.812 16.14 145.385 16.14C146.118 16.14 146.778 16.2533 147.365 16.48C147.965 16.7067 148.445 17.0133 148.805 17.4C149.165 17.7867 149.458 18.2333 149.685 18.74C149.912 19.2467 150.032 19.78 150.045 20.34C150.058 20.8867 150.012 21.44 149.905 22H142.685C142.792 22.8133 143.192 23.4267 143.885 23.84C144.578 24.24 145.405 24.44 146.365 24.44C147.458 24.44 148.472 24.2133 149.405 23.76V25.6C148.485 26.04 147.338 26.26 145.965 26.26C144.405 26.26 143.105 25.82 142.065 24.94C141.038 24.06 140.525 22.8133 140.525 21.2ZM147.985 20.4C148.065 19.8533 147.898 19.3067 147.485 18.76C147.085 18.2 146.418 17.92 145.485 17.92C144.725 17.92 144.072 18.14 143.525 18.58C142.992 19.02 142.705 19.6267 142.665 20.4H147.985ZM162.41 26H156.77V16.4H162.25C163.196 16.4 163.936 16.64 164.47 17.12C165.016 17.5867 165.29 18.2 165.29 18.96C165.29 20.0133 164.836 20.74 163.93 21.14C164.41 21.2867 164.803 21.5533 165.11 21.94C165.416 22.3267 165.57 22.8 165.57 23.36C165.57 24.1467 165.303 24.7867 164.77 25.28C164.25 25.76 163.463 26 162.41 26ZM158.91 21.92V24.38H161.89C162.903 24.38 163.41 23.9733 163.41 23.16C163.41 22.3333 162.916 21.92 161.93 21.92H158.91ZM158.91 18.02V20.4H161.77C162.676 20.4 163.13 20.0133 163.13 19.24C163.13 18.8133 162.996 18.5067 162.73 18.32C162.476 18.12 162.156 18.02 161.77 18.02H158.91ZM175.907 23.78C175.907 24.2467 176.14 24.48 176.607 24.48C176.767 24.48 176.98 24.44 177.247 24.36V25.9C176.847 26.06 176.393 26.14 175.887 26.14C174.927 26.14 174.287 25.7667 173.967 25.02C172.94 25.8467 171.733 26.26 170.347 26.26C169.413 26.26 168.62 26.0067 167.967 25.5C167.313 24.98 166.987 24.2533 166.987 23.32C166.987 22.2 167.407 21.3867 168.247 20.88C169.087 20.36 170.093 20.1 171.267 20.1C172.04 20.1 172.873 20.1933 173.767 20.38V20.04C173.767 19.4267 173.547 18.9333 173.107 18.56C172.667 18.1867 172.047 18 171.247 18C170.06 18 168.907 18.2467 167.787 18.74V16.78C169.04 16.3533 170.267 16.14 171.467 16.14C172.867 16.14 173.953 16.4867 174.727 17.18C175.513 17.8733 175.907 18.9267 175.907 20.34V23.78ZM171.687 21.6C170.98 21.6 170.387 21.7267 169.907 21.98C169.427 22.2333 169.187 22.6333 169.187 23.18C169.187 23.6333 169.36 23.9867 169.707 24.24C170.053 24.48 170.48 24.6 170.987 24.6C172.08 24.6 173.007 24.22 173.767 23.46V21.84C172.993 21.68 172.3 21.6 171.687 21.6ZM180.76 17.9C181.733 16.7267 182.966 16.14 184.46 16.14C185.873 16.14 187.02 16.6333 187.9 17.62C188.78 18.5933 189.22 19.7867 189.22 21.2C189.22 22.6133 188.78 23.8133 187.9 24.8C187.02 25.7733 185.873 26.26 184.46 26.26C183.02 26.26 181.866 25.76 181 24.76V30.4H178.86V16.4H180.76V17.9ZM186.2 23.5C186.76 22.9 187.04 22.1333 187.04 21.2C187.04 20.2667 186.76 19.5067 186.2 18.92C185.64 18.32 184.926 18.02 184.06 18.02C183.353 18.02 182.726 18.2133 182.18 18.6C181.646 18.9867 181.253 19.46 181 20.02V22.36C181.253 22.9333 181.646 23.4133 182.18 23.8C182.726 24.1867 183.353 24.38 184.06 24.38C184.926 24.38 185.64 24.0867 186.2 23.5ZM193.141 26H191.301V16.4H193.441V22.68L198.581 16.4H200.421V26H198.281V19.72L193.141 26ZM211.278 23.78C211.278 24.2467 211.511 24.48 211.978 24.48C212.138 24.48 212.351 24.44 212.618 24.36V25.9C212.218 26.06 211.764 26.14 211.258 26.14C210.298 26.14 209.658 25.7667 209.338 25.02C208.311 25.8467 207.104 26.26 205.718 26.26C204.784 26.26 203.991 26.0067 203.338 25.5C202.684 24.98 202.358 24.2533 202.358 23.32C202.358 22.2 202.778 21.3867 203.618 20.88C204.458 20.36 205.464 20.1 206.638 20.1C207.411 20.1 208.244 20.1933 209.138 20.38V20.04C209.138 19.4267 208.918 18.9333 208.478 18.56C208.038 18.1867 207.418 18 206.618 18C205.431 18 204.278 18.2467 203.158 18.74V16.78C204.411 16.3533 205.638 16.14 206.838 16.14C208.238 16.14 209.324 16.4867 210.098 17.18C210.884 17.8733 211.278 18.9267 211.278 20.34V23.78ZM207.058 21.6C206.351 21.6 205.758 21.7267 205.278 21.98C204.798 22.2333 204.558 22.6333 204.558 23.18C204.558 23.6333 204.731 23.9867 205.078 24.24C205.424 24.48 205.851 24.6 206.358 24.6C207.451 24.6 208.378 24.22 209.138 23.46V21.84C208.364 21.68 207.671 21.6 207.058 21.6ZM216.371 26H214.231V16.4H216.371V20.26H221.171V16.4H223.311V26H221.171V22.14H216.371V26ZM230.448 26H228.308V18.28H224.988V16.4H233.748V18.28H230.448V26ZM240.182 26H235.422V16.4H237.562V19.6H240.182C241.355 19.6 242.282 19.9 242.962 20.5C243.642 21.1 243.982 21.8667 243.982 22.8C243.982 23.7333 243.642 24.5 242.962 25.1C242.282 25.7 241.355 26 240.182 26ZM237.562 21.28V24.3H239.762C240.402 24.3 240.902 24.1733 241.262 23.92C241.622 23.6533 241.802 23.28 241.802 22.8C241.802 22.3067 241.622 21.9333 241.262 21.68C240.902 21.4133 240.402 21.28 239.762 21.28H237.562ZM247.842 26H245.702V16.4H247.842V26Z" fill="white"/>
<path d="M257.778 12.2218L265.556 20L257.778 27.7782" stroke="white" stroke-width="2"/>
</svg>
